/* XPM */
static char *_50b7b13d75d439ac512f1cf9936578cePP69v15Vs5ghIFW[] = {
/* columns rows colors chars-per-pixel */
"64 64 95 2 ",
"   c #2E271E",
".  c #352D23",
"X  c #373026",
"o  c #393126",
"O  c #3D3529",
"+  c #3F382C",
"@  c #40372B",
"#  c #42392D",
"$  c #463E30",
"%  c #483F31",
"&  c #464032",
"*  c #4D4334",
"=  c #514636",
"-  c #534738",
";  c #564A3A",
":  c #5A4E3C",
">  c #5D513F",
",  c #584F40",
"<  c #5E5341",
"1  c #625542",
"2  c #665945",
"3  c #695B46",
"4  c #695C47",
"5  c #6B5C47",
"6  c #665C48",
"7  c #675D48",
"8  c #695C48",
"9  c #685D49",
"0  c #6A5D4B",
"q  c #6C5E49",
"w  c #6D5E49",
"e  c #6D5F4A",
"r  c #6E5F4A",
"t  c #6C604B",
"y  c #6F604B",
"u  c #6F614B",
"i  c #6F634F",
"p  c #70604B",
"a  c #70634D",
"s  c #72634D",
"d  c #74634E",
"f  c #72654E",
"g  c #76654E",
"h  c #6F6550",
"j  c #736751",
"k  c #726652",
"l  c #766750",
"z  c #786650",
"x  c #796750",
"c  c #756952",
"v  c #7B6952",
"b  c #7A6A52",
"n  c #7C6B53",
"m  c #7D6B53",
"M  c #7E6B53",
"N  c #7E6D54",
"B  c #7E6D55",
"V  c #7E6E55",
"C  c #7F7057",
"Z  c #7E7058",
"A  c #806E56",
"S  c #816E56",
"D  c #826F56",
"F  c #827057",
"G  c #807158",
"H  c #827058",
"J  c #827158",
"K  c #847158",
"L  c #857259",
"P  c #83745A",
"I  c #87745A",
"U  c #87755B",
"Y  c #86765B",
"T  c #89755B",
"R  c #88765C",
"E  c #87785E",
"W  c #89785D",
"Q  c #89795E",
"!  c #8B795E",
"~  c #897B5F",
"^  c #8C795F",
"/  c #8C7A5F",
"(  c #877A60",
")  c #897A62",
"_  c #8C7B60",
"`  c #8C7C61",
"'  c #8E7C61",
"]  c #8E7E62",
"[  c #917E62",
"{  c #8E8165",
"}  c #908165",
"|  c #918265",
" . c #938265",
".. c #938368",
"X. c #928269",
/* pixels */
". o O O o @ @ @ . . o O # # # @ # O O @ @ O O + $ # # O o . .   . @ # # @ @ o @ + + # + + X X . o . o X O O + # + o O # O O + # ",
"o ; > : ; : : : : ; : : : : ; O O - ; , 1 : < < 2 < ; - - - = . @ ; > > : ; - - - : > > ; - - o o = > > < : ; : : : > < > ; - O ",
"# < 1 2 3 3 1 1 5 p r 2 2 1 > # @ : 1 i j 8 2 8 8 2 < : : : < O # ; 0 3 5 > : < < 8 5 5 2 1 : # O > 5 j f 5 5 < t 7 i t t > - o ",
"o ; < A L T D A D T T x b 2 1 + O , 0 ) X.R R R ] J b g j < : + # : 3 v T A x d g I Q Q C 5 ; O O 1 f { { I V A Z E ~ I Y 1 : o ",
". ; > A A A F A m I Q V b 2 1 + # : 0 ( _ V J P R A n b k 1 < O # > p A L L A d x T Q Q A 5 : # + 1 7 I R J F Q  .{ ^ K F < : + ",
"  = : 3 1 1 1 1 5 t i 2 5 < > + + : < e e 3 3 < 8 2 2 8 e e 1 # % 2 p p p p 2 1 : 2 1 r 3 2 < # + - > 2 2 1 < 2 f t 5 1 2 : ; + ",
". % : : : : > : > < 1 > < : = # # : ; : ; ; : < < < : < 1 2 1 # # : < ; - ; ; : ; > - : > < ; o O * : < < - - - < > : ; ; ; = @ ",
". o @ # @ @ @ @ # + + # # + + O + + + + + O O o o # $ $ # & $ O @ @ o o o @ @ # @ @ @ # $ # @ . . O + & # @ # O + O @ @ @ @ O X ",
". @ @ # + + O . . o + O # O # $ & & & @ O o o X o # # @ O # # # @ @ o o . O O O o @ # # & @ o . O # & & # @ @ o X + @ @ O O O O ",
": > < < : < ; O o - ; ; < : < < 2 8 3 < < : = o @ : < ; : : 1 : : : : ; > ; - X o = : < 2 : ; = - > > > 1 > : @ @ ; > = ; = > ; ",
"> 2 8 5 1 2 > + O ; > 2 t 5 7 7 8 8 p 5 2 ; : @ & 1 8 1 r 5 t 8 p r p r a 2 ; X O ; 1 2 r 8 1 1 1 1 5 2 5 1 > @ @ > 1 1 3 3 p f ",
"L T I T V 2 > # O - : b { ] E C g v A T J 1 ; O $ 3 8 v ^ Q _ X.] T T T R 2 : o o : 1 A T Q T A F C F m m 5 > O @ ; 1 F T T Q [ ",
"F L A A m < ; O o * ; b [  .[ T b x v A m 1 ; O # 2 f V T Q ]  .Q T I _ T 5 : @ # 1 1 x b T R T K A I Y I 3 > @ @ ; 1 v A T T T ",
"p p 1 1 r 1 > o @ = : 1 a a r p 3 2 1 2 5 > ; O # < < 1 2 t f c 2 > : 1 5 1 1 % # 2 2 3 2 r d d 5 3 5 2 p 5 < @ O ; > 5 1 5 2 p ",
"1 > ; : > > - . o * ; : : ; : > : > < : < ; = O O : ; : > < < < - * = ; > 1 : # @ ; ; ; ; : 1 1 > > > 1 1 1 ; O O ; > ; ; : : > ",
"# # @ @ # # # . X o @ @ @ X X o @ @ # # # @ O X o O O O + $ + + o X o O + # # O X @ # # @ @ # # # & & # & @ @ X X O @ @ @ O @ @ ",
". @ # # O # O O O @ @ @ @ o o . X O @ @ @ # O O O $ # O + + + X . o @ $ + + + O @ o @ @ @ @ O o O & & # @ # + o o + $ + + O # O ",
"@ : 1 > < 2 1 1 1 1 : : ; : = o o = : : < 1 > : : 1 < , ; < < + o = ; , , , , ; ; : > ; ; ; - O + > < > > > ; * - : < < : ; > # ",
"o : 1 5 2 t 5 t r d p t j r < O # > 2 5 7 t r r t t 6 2 < 1 > $ @ : , 2 6 1 6 < 2 > 2 1 < : - O @ > 1 1 1 2 1 1 2 t f c 7 5 < & ",
"@ : 1 m C ` Q ] ^ Q T _ E t 1 O # 1 i Q  . .Q I R Z F A P i < $ # , 6 b J b Z V A x K L b : * o # < 5 C L F P C I I Q Q V r > # ",
"O : > t f C b C L T Q  .{ t > O # 1 j { ] ] I R T L L L A 5 1 # % 1 3 p b b _ R L x K ] I 1 - o O ; 2 b Q F I P ^ T ^ R L f 1 # ",
"O > 1 1 5 5 t 2 r 1 1 5 r 1 : O @ < r c c j 3 2 8 3 2 : 1 5 1 @ @ : 2 1 > 1 2 2 1 2 t g g < - o @ ; 1 s f 2 1 > 2 2 5 2 8 8 1 # ",
"o - > > < > ; = - - : : > ; * . X - < < < < : , < < : - ; : : # O ; : ; = > : > > : 1 2 1 : - o X * - > > ; ; * : ; > : > > : O ",
"o o O O # + + X o o O @ # % + O . O o O # O $ # $ # O o O @ @ @ . O # @ O O O O O O O O + o o o X X . o O O o o o @ @ # # # O o ",
"# @ o o + + O . . O + & # # # + o O X X o + # + O + + + @ @ @ @ @ # # # # O # O O O # O O O @ # O o . o @ @ o . . @ # + + O # # ",
": : ; = = : ; O o : > 1 < 2 1 2 : < ; : : > > # O : : > : : : ; : < 1 : ; ; ; O O - : : : : ; : : ; ; : < 1 ; @ o = : ; > : 1 1 ",
"2 2 2 1 1 7 > + O > t j t j r t 1 8 2 1 > : : O O : < 8 5 r 3 2 2 3 r 8 2 < 1 + # : t b c r 5 5 1 1 2 i g 8 1 @ O - < 7 r r g a ",
"T F v v t 1 ; + o ; 7 E Q [ Q Q L R I I b 1 : O O - 1 L [ ^ L A n n A V n 1 1 # # ; 1 ^ ]  .V v g b J _ E r < @ O - 1 I _ _ ]  .",
" .F f g r 1 ; + o ; r Q ] ] L I F R J V a 1 > O O - 2 V T T R ] Z F Z _ R 7 1 # @ : 1 Q ^ [ A L v v g V A 1 ; @ O - 1 V I F L R ",
"t 1 > > 1 2 < # + ; 1 8 5 1 > 7 2 t 7 8 8 2 1 o O - 1 5 5 2 2 r 1 < : 6 r f 8 $ o = - 5 r p p a 5 1 < 1 1 < ; o O - : < 1 1 3 a ",
"> : : ; > < < + # ; > > : : : > : > > < : : - . o = : : - - ; : ; ; * < : 1 < # o = ; > 1 1 1 1 < > ; ; : < : o o * - - ; ; ; : ",
"O O O o + & & + O O X o O o o o O O + # # # o . . o # O . . . o o O o O X + # O . . O O # @ # @ @ @ # # # # # . . o @ @ o o o O ",
". X O o + + & # # # o . o @ @ . X # O # + O o . X o O O X . X   o O # + O + O + O + @ O @ # @ X o o @ # # # # @ @ o # # @ o . . ",
"X = - * ; > 1 1 5 > ; = = = = o O ; ; > : > : - ; ; : ; = = = o O : 7 1 < : ; ; : > : ; > ; ; X O - 1 > 1 > 1 > : ; : 1 : : = . ",
"# : > > 8 i c t f t 5 1 1 1 ; @ O ; : 1 2 2 2 2 5 > > > ; = - O # < j c j t 1 7 5 p p r 7 1 : @ # : 1 1 t p g t p 1 5 2 p 2 : o ",
"& > 2 t P P ] Q Q F A g A 1 : @ O ; < C K T T T I g a g 3 > ; # # 1 i E E C j h b T ^ Q K 1 : O # > 5 F Q  . .Q T A T T ^ p 1 @ ",
"$ : 2 p V C I I m b p g A r : @ O - < f A A T ^ Q c g g a > ; O # < r L P F f t p F Q ^ F 2 > # # 1 8 I  ... .T A b m m A p : O ",
"@ - 1 1 1 < 5 t 2 1 > 1 1 1 ; @ O ; 3 2 5 5 5 2 r 2 2 7 t t > # O : < 1 2 1 : : ; 1 2 t 5 > - @ # 1 2 t g f 2 1 > > > 5 1 5 : @ ",
". % = : > > > > : ; = : ; : ; o @ = ; : : ; > > 1 > < > > > = O o - : : 1 : : - # & ; > > : - O # : > < > < : : ; = * = - > - O ",
"    . o + O # # O # O @ o o @ @ O # # # @ O O # # # & & & # O X o o # o @ O # o X X + # @ + @ O + O + O + o O @ @ @ O @ @ @ O o ",
". . . . @ @ # @ O # # @ o @ @ # @ # # # @ @ . o O O # # & + O # O + O O + + # O X X + + # # # O @ @ # @ # # & # @ @ @ @ @ @ @ o ",
"; * % * = ; : # @ > < < > : > > > < < < ; ; - o # > > < > 1 > > > > : ; > > > + + - > - > > 1 > > > 1 > > > ; @ O = > > : : : ; ",
"1 1 > 1 3 1 1 # % 1 2 p p g 3 3 5 t 5 2 1 : : # # < < 2 1 2 2 2 1 5 2 2 t h t # # 1 7 < 3 2 r 1 5 3 1 1 1 2 < @ o - > < 1 1 1 1 ",
"T A b A x 1 ; @ @ > p T  . .^ Q Q [ T F g < ; @ # < 5 x x C b g F Q [ Q ` h < # # 1 t b A A A F v A A b f > ; O o = > p A A K A ",
"^ I T ^ T 3 ; @ @ 1 3 K }  .^ Q T [ T F g 1 : # # > 1 x m g b b A T  .{ E t > + # 1 a L I A A A L I Q F v < : @ @ ; ; t A K T T ",
"f t 3 5 p r : @ o : 1 1 5 f p 2 1 r 3 3 1 > : O # ; < 2 2 2 5 5 5 5 i j j 7 ; O # > 2 < < < 1 r t p 5 1 < > ; @ @ ; > 5 5 5 g g ",
": : : ; > : = . X = ; = ; > : = ; ; ; ; - : ; @ O = > : ; ; > > ; ; < < 1 : - X O - > : : 1 > : > > > > > > > @ O = > > > > 1 2 ",
"o @ @ @ o @ @ . . o @ O O @ @ o o @ @ @ @ @ @ o o O # + O O O # # O + + # # + O O # # O @ # @ @ o O O o o O @ o o O @ O O o @ @ ",
"o @ @ X . . o X @ @ @ # @ @ @ . o @ $ # # # # O O # # # @ O X X . o # # O o O O @ O @ % $ $ @ . . O # O o O O O O X o o o . o o ",
"+ ; : ; = - ; - = ; : 1 : : * . O ; 2 < 1 > : ; : > 5 1 < - ; O O - ; : : : : > : 1 ; : : < - o O ; > ; - * ; > : - - ; - ; * o ",
"@ > 1 2 > 1 2 1 1 1 2 3 1 : = @ @ < t r c 7 t 1 5 t t p t 7 > O X - < 5 5 2 2 1 1 2 1 1 1 < - . + > t 5 2 > 2 8 1 < > 2 5 5 : o ",
"@ > 2 m A Q T F v A F I x : % . @ : 8 A ] _ Q J J L A I T t 1 # + : 1 A Q _ I T A ^ A A g : - o + ; 5 b L T K I V C F Q I p < @ ",
"# 2 5 l C ^ } T S S T T D : * . X : r A Q ^ Q T J T A T A r > # O ; 2 b T A A V A ] [ [ A < ; o O ; 2 C Q I b b m I L T V 8 > # ",
"# < 2 1 2 2 5 1 : 3 5 5 3 : =   . * > 1 2 1 1 1 1 1 1 1 2 > < O # - 1 < 3 1 > 1 3 p p p 8 1 ; O O - > t t t < : : 1 2 5 5 1 > # ",
"O - ; : - ; > > : > : : - : *   . $ : - - - = ; : : > ; ; = : O # ; < : ; = - - ; : 1 1 1 : - o o ; > 2 2 < > ; - - ; > : - - o ",
". o O O O O O O @ @ @ @ @ @ @ . . o O @ o @ @ @ @ @ @ @ @ O # o + # # O @ o o o # # # # @ @ O o o O # # # # # + o o @ @ + o X . ",
"@ @ @ @ @ @ @ . @ @ @ @ @ @ @ @ O O O O O # o o X # # $ + + + # & & # O O O O X O $ + # + # O @ # # + # # # # O . o @ @ @ . . o ",
"= : 1 1 : - * @ @ = : = ; - ; = = : > > : : ; @ @ ; 1 1 > : - : < < : : < < ; O + 1 1 7 < 1 : 1 > : = ; ; > : # + - 1 : : = = ; ",
"1 3 5 p 5 : - @ @ ; > > 5 1 5 1 5 r p r 2 < = o O : 1 8 t t i i t 2 2 r r 5 : + + 1 i j h h r i p r > 1 > 2 > # @ ; 2 1 3 1 1 1 ",
"p x K S x : - @ @ ; 1 A K K K F T Q Q Q A 1 - @ O ; < V E ( { { P E R ] J 2 : O O : 8 ] X.] _ _ [ L m g x 2 1 # @ > 1 b A F v A ",
"v b L g x 1 : @ @ 1 1 F K S S S T T T L A 2 - O o : 2 Z R ] _ X.L ] Q ] J 1 = . o : 7 A ] ] [ I I P C b b 3 1 & # 1 2 F v F b f ",
"3 1 3 > 5 5 1 # @ 1 1 1 1 5 1 1 5 5 t 3 3 1 : # @ 2 t t 2 8 7 e 5 d d g 8 : - . o * < 5 5 5 5 5 2 7 t 2 2 1 2 & % 1 1 2 1 5 1 > ",
": ; > : 1 1 : @ @ : > - - - : - : < 1 1 : > - O # > 2 > : : < 1 < < > 1 1 ; * X X * : < ; ; ; : ; > > ; ; > < % # ; > > < 1 1 : ",
"o X # @ & # @ @ o @ @ @ @ @ @ @ @ # @ # # # O o O # # O O O # % # # @ # @ @ @ X . o + # + O O + + + + O @ # $ @ o o O O # # * # "
};
