/* XPM */
static char *_f2179a09cc24e60c10f859404f754b0MT6L71WZc4UFj5Tz[] = {
/* columns rows colors chars-per-pixel */
"64 64 74 1 ",
"  c #980088",
". c #FCF400",
"X c #CCC400",
"o c #B4AC00",
"O c #FCA470",
"+ c #F0945C",
"@ c #FC7800",
"# c #FC9840",
"$ c #FC8820",
"% c #B47044",
"& c #543C1C",
"* c #A86840",
"= c #C87C4C",
"- c #FCCCB0",
"; c #000098",
": c #4040FC",
"> c #7C0000",
", c #E88C58",
"< c #9C6038",
"1 c #885830",
"2 c #FCB890",
"3 c #FCB080",
"4 c #FC9C60",
"5 c #BC7848",
"6 c #80502C",
"7 c #FCA85C",
"8 c #FCC4A4",
"9 c #D08050",
"0 c #A0643C",
"q c #FCBC9C",
"w c #6C4824",
"e c #DC8854",
"r c black",
"t c gray22",
"y c gray44",
"u c #B4B4B4",
"i c gray33",
"p c #905C34",
"a c gray55",
"s c #000088",
"d c #000058",
"f c #000040",
"g c #000070",
"h c #7C7C7C",
"j c #C0C0C0",
"k c gray66",
"l c #00004C",
"z c #000064",
"x c #00007C",
"c c #0000A4",
"v c #0000B0",
"b c #0000BC",
"n c #484848",
"m c #202020",
"M c #2C2C2C",
"N c gray25",
"B c #343434",
"V c gray19",
"C c #007070",
"Z c #008C8C",
"A c #006C6C",
"S c #009898",
"D c #008484",
"F c #00A4A4",
"G c #004040",
"H c #005858",
"J c #007474",
"K c #007C7C",
"L c #007878",
"P c #646464",
"I c #009C9C",
"U c #00CCCC",
"Y c #989898",
"T c white",
/* pixels */
"                                                                ",
"                         .......XXXXXooo                        ",
"                         .......XXXXXooo                        ",
"                         ..OOO..XXXOO+oo                        ",
"                         @#O++++++++++#@                        ",
"                         @OOOOO+++OOO++@                        ",
"                         $O%&*=OOO=*&%+$                        ",
"                        %$O-;:>,=<>;:-+$1                       ",
"                        %#O233OO45,333+#1                       ",
"                        67O2883990OqqO+7w                       ",
"                        %e4,43OOOOO3+e9%1                       ",
"                        re4,43=%%%=O+%9%rr                      ",
"                       tte4,4O+++++O+%9%rr                      ",
"                       rtt4O4O4OOO4O+e%rrr                      ",
"                       rrtteOOO,=,OO+%6rrr                      ",
"                   yui rrrr<%*<ppp666w&rrr  iya                 ",
"               sssssaadrrrr<=%%=%%*666w&rrffgghhggg             ",
"             ss;;;;jkkadrrrl6**,95*66&lffdddgkahigggd           ",
"           ss;;;;;shyyigddfgzl&666&&llfldddgxhyitgggzdd         ",
"          ss;;;;;ssssxxxggzdzgzzdllllfzzggxxxxxxgggggzdd        ",
"         ss;;;;;sssxxxxxxxxxxzdffffffzxxxxxxxxxxgggggzzdd       ",
"       ccvbvcccssxxxxxxxxxxxxxxxxlzzsxxxxxxxxxxggggsssggzdf     ",
"       ggzdddfffffzxxxxxxxxxxxxxxlzzsxxxxxxxxxggzffffddllff     ",
"      zx;v;;sgzrrfllzxgggggggggggzlzxsgggggggzzzlffrrrrrr       ",
"      xzdzggzdfdrrffllzggggggggggzlzgsggggggzzzlfrrrrrrrff      ",
"      zzx;sxgzldrrrrfllzgggggggggzlzgsgggggzzzlfrfzgxxggzr      ",
"      fyx;;sxzlflrrrrfllzggggggggzlzgsgggggzzlfrrdfffffrrf      ",
"      ynxc;sxzlffrrrrrffffffffffffrrrfffffffffrrfdzgggzdlf      ",
"      nxsccsxglffrrrrrrrrrrrrrrrrrrrrrrrrrrrrrrrfdzgggzdf       ",
"       ysccsxglffrrrrrmmmmmmmmmmmmmmmmmmmmmmmmrrfdzggzdlf       ",
"      yn;cc;sglffrrrrrmmMNtttttBBVMMNtBBBBBMmmrrfzzgzzdlf       ",
"      nx;cc;sglff rrrrmmMBMMMMMMMmMMBMMMMMMmmrrrrdzzzdlf        ",
"       mmmmmmCZZZZA rrrmmMmmmmmmmmMMMmmmmrrrrrrfffdddlff        ",
"      dxmdxxCSDFFZCAmmmmmmmmMMMMMMMMMMMMMmmmmrrfffrrrfff        ",
"      lmdgxGDZDFZCHHGmmmMttNnnnnnnnNNttBBMMmmmrfffffHAAAAH      ",
"      mldggHCDDFZCCHGmmmmmmmMNNnnNNNtMmrrrrrrrrffffHHAJJAHH     ",
"      lldzzHCDDFSKCHHGrrrrmmrrMBBMMmrrdsssgzzzlrffGHHAAHHHHG    ",
"      lldddHCDDSFKCHHGddllllmmrrrrrrzgggzzzffzzzffGHHHAAHHGG    ",
"       llddGHCDZFKCAGGmmmmrrllmmrrrzlldzsxzddlfzrfGHHHZAGGMm    ",
"       lllllHCDDFKCAGHzddlllrrrlrrzldzgxssxgzdlmfMBGHAHGGGMm    ",
"        llllHCLLCHHHGHGddlllffrrrrlldzgxssxgzdlffMVGGAGGGMr     ",
"         lllHCLCHMMMMGGddlllfffrrrfldzgxssxgzdlffMMBHGGGMmr     ",
"           lGHCMMGGmGMGddlllfffrrhlldzgxssxgzdlffPMVGBBMmr      ",
"            GHMGGCIDGGMddlllfffrmPlldzgxssxgzdlffnMBBBMMmr      ",
"             MMCDUIDGHMddlllfffrmllldzgxssxgzdlffMBBBBMmr       ",
"             MGDIDUIHGGddlllfffrrllldzgxssxgzdlffMMBBMmmr       ",
"             MHDIDUICGGddlllfffrrhlldzgxssxgzdlffPGMmmrr        ",
"              HCICUICGHGdlllfffrrPlldzfffffffflffnGGMmM         ",
"               HDIDUDCGGdlllfffrrflfffgxssxzzdffrHGMmmM         ",
"               HCCMMMMmmGlllfffrrfrlzgzzgggzzddlfGGMmM          ",
"               HCMMmmmmmmlllffrrfrrlldzzgggzzddlfGMmmm          ",
"               HMMMHGGGmmmrrrrrrffrlldzzgggzzddlfmmmmr          ",
"                MmHGmmGGmmrrrrrrf rrrrrrrrrrrrrrrrrrr           ",
"                mmHGmGmtmmrrrrrrr ddzg;;;ggggzdlrrrr            ",
"                mmGmmmmGmrrrrrrrrfmlllllllfffrrr                ",
"                 mHGmGGmffrrrrrrffddzgs;sxzdlllf                ",
"                   GGG ;ddfffrrrffdYzgs;sxzdllli                ",
"                       ;;rrrrrrrff Pzgg;sxzdllfM                ",
"                      ;gdddzdlffff dzlllllllfff                 ",
"                      ;;xzzdzdlffnnnlxcccxxxgglnnnnnnnnniiP     ",
"                  PPPPPiiinnnnttMMM;bx;;xdddddzztttttttnniiPP   ",
"                         PPPiinntM;;xbbbb;xxgzdzMMMMttnnniiPPP  ",
"                            iiiinnx;bb;;xxddddzzMMttnnnniiPPPP  ",
"                                ii;;;;;x;;;ssxdzttnnnnniiPP     "
};
